<svg xmlns="http://www.w3.org/2000/svg" viewBox="0 0 64 64" width="64" height="64">
  <!-- Asas esquerdas -->
  <path d="M32 30 C10 10 2 28 8 38 C14 48 30 42 32 38" fill="#ffd1dc" opacity="0.95" stroke="#6b5880" stroke-width="2.5" stroke-linejoin="round" />
  <path d="M32 36 C18 42 12 50 18 56 C24 62 30 52 32 46" fill="#d4f0fc" opacity="0.95" stroke="#6b5880" stroke-width="2.5" stroke-linejoin="round" />

  <!-- Asas direitas -->
  <path d="M32 30 C54 10 62 28 56 38 C50 48 34 42 32 38" fill="#ffd1dc" opacity="0.95" stroke="#6b5880" stroke-width="2.5" stroke-linejoin="round" />
  <path d="M32 36 C46 42 52 50 46 56 C40 62 34 52 32 46" fill="#d4f0fc" opacity="0.95" stroke="#6b5880" stroke-width="2.5" stroke-linejoin="round" />

  <!-- Antenas -->
  <path d="M30 20 Q24 8 16 10" fill="none" stroke="#6b5880" stroke-width="2.5" stroke-linecap="round" />
  <path d="M34 20 Q40 8 48 10" fill="none" stroke="#6b5880" stroke-width="2.5" stroke-linecap="round" />

  <!-- Corpinho -->
  <rect x="30" y="16" width="4" height="34" rx="2" fill="#6b5880" />
</svg>